HIERARCHY
ROOT Hips
{
	OFFSET -14.64140 90.27770 -84.91600
	CHANNELS 6 Xposition Yposition Zposition Zrotation Xrotation Yrotation
	JOINT Spine
	{
		OFFSET 0.00000 13.20850 -1.60436
		CHANNELS 3 Zrotation Xrotation Yrotation
		JOINT Spine1
		{
			OFFSET 0.00000 8.61716 0.00000
			CHANNELS 3 Zrotation Xrotation Yrotation
			JOINT Spine2
			{
				OFFSET 0.00000 8.61717 0.00000
				CHANNELS 3 Zrotation Xrotation Yrotation
				JOINT Spine3
				{
					OFFSET 0.00000 8.61717 0.00000
					CHANNELS 3 Zrotation Xrotation Yrotation
					JOINT Neck
					{
						OFFSET 0.00000 11.07920 1.10792
						CHANNELS 3 Zrotation Xrotation Yrotation
						JOINT Neck1
						{
							OFFSET 0.00000 7.08032 0.00000
							CHANNELS 3 Zrotation Xrotation Yrotation
							JOINT Head
							{
								OFFSET 0.00000 7.08031 0.00000
								CHANNELS 3 Zrotation Xrotation Yrotation
								End site
								{
									OFFSET 0.00000 0.00000 0.00000
								}
							}
						}
					}
					JOINT RightShoulder
					{
						OFFSET -0.01000 7.91373 5.19711
						CHANNELS 3 Zrotation Xrotation Yrotation
						JOINT RightArm
						{
							OFFSET -18.41580 0.00000 0.00000
							CHANNELS 3 Zrotation Xrotation Yrotation
							JOINT RightForeArm
							{
								OFFSET -29.11090 0.00000 0.00000
								CHANNELS 3 Zrotation Xrotation Yrotation
								JOINT RightHand
								{
									OFFSET -24.65040 0.00000 0.00000
									CHANNELS 3 Zrotation Xrotation Yrotation
									JOINT RightHandThumb1
									{
										OFFSET -5.35114 -0.85590 3.97906
										CHANNELS 3 Zrotation Xrotation Yrotation
										JOINT RightHandThumb2
										{
											OFFSET -4.52789 0.00000 0.00000
											CHANNELS 3 Zrotation Xrotation Yrotation
											JOINT RightHandThumb3
											{
												OFFSET -2.46976 0.00000 0.00000
												CHANNELS 3 Zrotation Xrotation Yrotation
												End site
												{
													OFFSET 0.00000 0.00000 0.00000
												}
											}
										}
									}
									JOINT RightHandIndex1
									{
										OFFSET -14.26970 0.00000 2.88139
										CHANNELS 3 Zrotation Xrotation Yrotation
										JOINT RightHandIndex2
										{
											OFFSET -5.48836 0.00000 0.00000
											CHANNELS 3 Zrotation Xrotation Yrotation
											JOINT RightHandIndex3
											{
												OFFSET -3.01859 0.00000 0.00000
												CHANNELS 3 Zrotation Xrotation Yrotation
												End site
												{
													OFFSET 0.00000 0.00000 0.00000
												}
											}
										}
									}
									JOINT RightHandMiddle1
									{
										OFFSET -14.26970 0.00000 -0.09147
										CHANNELS 3 Zrotation Xrotation Yrotation
										JOINT RightHandMiddle2
										{
											OFFSET -6.17441 0.00000 0.00000
											CHANNELS 3 Zrotation Xrotation Yrotation
											JOINT RightHandMiddle3
											{
												OFFSET -3.56743 0.00000 0.00000
												CHANNELS 3 Zrotation Xrotation Yrotation
												End site
												{
													OFFSET 0.00000 0.00000 0.00000
												}
											}
										}
									}
									JOINT RightHandRing1
									{
										OFFSET -12.69180 0.00000 -3.06433
										CHANNELS 3 Zrotation Xrotation Yrotation
										JOINT RightHandRing2
										{
											OFFSET -5.62556 0.00000 0.00000
											CHANNELS 3 Zrotation Xrotation Yrotation
											JOINT RightHandRing3
											{
												OFFSET -3.56744 0.00000 0.00000
												CHANNELS 3 Zrotation Xrotation Yrotation
												End site
												{
													OFFSET 0.00000 0.00000 0.00000
												}
											}
										}
									}
									JOINT RightHandPinky1
									{
										OFFSET -11.11390 0.00000 -6.03719
										CHANNELS 3 Zrotation Xrotation Yrotation
										JOINT RightHandPinky2
										{
											OFFSET -4.52789 0.00000 0.00000
											CHANNELS 3 Zrotation Xrotation Yrotation
											JOINT RightHandPinky3
											{
												OFFSET -2.46976 0.00000 0.00000
												CHANNELS 3 Zrotation Xrotation Yrotation
												End site
												{
													OFFSET 0.00000 0.00000 0.00000
												}
											}
										}
									}
								}
							}
						}
					}
					JOINT LeftShoulder
					{
						OFFSET 0.01000 7.91373 5.19711
						CHANNELS 3 Zrotation Xrotation Yrotation
						JOINT LeftArm
						{
							OFFSET 18.41580 0.00000 0.00000
							CHANNELS 3 Zrotation Xrotation Yrotation
							JOINT LeftForeArm
							{
								OFFSET 29.11090 0.00000 0.00000
								CHANNELS 3 Zrotation Xrotation Yrotation
								JOINT LeftHand
								{
									OFFSET 24.65040 0.00000 0.00000
									CHANNELS 3 Zrotation Xrotation Yrotation
									JOINT LeftHandThumb1
									{
										OFFSET 5.35114 -0.85590 3.97906
										CHANNELS 3 Zrotation Xrotation Yrotation
										JOINT LeftHandThumb2
										{
											OFFSET 4.52789 0.00000 0.00000
											CHANNELS 3 Zrotation Xrotation Yrotation
											JOINT LeftHandThumb3
											{
												OFFSET 2.46977 0.00000 0.00000
												CHANNELS 3 Zrotation Xrotation Yrotation
												End site
												{
													OFFSET 0.00000 0.00000 0.00000
												}
											}
										}
									}
									JOINT LeftHandIndex1
									{
										OFFSET 14.26970 0.00000 2.88139
										CHANNELS 3 Zrotation Xrotation Yrotation
										JOINT LeftHandIndex2
										{
											OFFSET 5.48836 0.00000 0.00000
											CHANNELS 3 Zrotation Xrotation Yrotation
											JOINT LeftHandIndex3
											{
												OFFSET 3.01859 0.00000 0.00000
												CHANNELS 3 Zrotation Xrotation Yrotation
												End site
												{
													OFFSET 0.00000 0.00000 0.00000
												}
											}
										}
									}
									JOINT LeftHandMiddle1
									{
										OFFSET 14.26970 0.00000 -0.09147
										CHANNELS 3 Zrotation Xrotation Yrotation
										JOINT LeftHandMiddle2
										{
											OFFSET 6.17440 0.00000 0.00000
											CHANNELS 3 Zrotation Xrotation Yrotation
											JOINT LeftHandMiddle3
											{
												OFFSET 3.56744 0.00000 0.00000
												CHANNELS 3 Zrotation Xrotation Yrotation
												End site
												{
													OFFSET 0.00000 0.00000 0.00000
												}
											}
										}
									}
									JOINT LeftHandRing1
									{
										OFFSET 12.69180 0.00000 -3.06433
										CHANNELS 3 Zrotation Xrotation Yrotation
										JOINT LeftHandRing2
										{
											OFFSET 5.62556 0.00000 0.00000
											CHANNELS 3 Zrotation Xrotation Yrotation
											JOINT LeftHandRing3
											{
												OFFSET 3.56744 0.00000 0.00000
												CHANNELS 3 Zrotation Xrotation Yrotation
												End site
												{
													OFFSET 0.00000 0.00000 0.00000
												}
											}
										}
									}
									JOINT LeftHandPinky1
									{
										OFFSET 11.11390 0.00000 -6.03719
										CHANNELS 3 Zrotation Xrotation Yrotation
										JOINT LeftHandPinky2
										{
											OFFSET 4.52789 0.00000 0.00000
											CHANNELS 3 Zrotation Xrotation Yrotation
											JOINT LeftHandPinky3
											{
												OFFSET 2.46976 0.00000 0.00000
												CHANNELS 3 Zrotation Xrotation Yrotation
												End site
												{
													OFFSET 0.00000 0.00000 0.00000
												}
											}
										}
									}
								}
							}
						}
					}
					JOINT pCube4
					{
						OFFSET 0.00000 10.91090 1.10792
						CHANNELS 3 Zrotation Xrotation Yrotation
						End site
						{
							OFFSET 0.00000 0.00000 0.00000
						}
					}
				}
			}
		}
	}
	JOINT RightUpLeg
	{
		OFFSET -9.98441 0.00000 0.00000
		CHANNELS 3 Zrotation Xrotation Yrotation
		JOINT RightLeg
		{
			OFFSET 0.00000 -42.11790 0.00000
			CHANNELS 3 Zrotation Xrotation Yrotation
			JOINT RightFoot
			{
				OFFSET 0.00000 -45.00020 -0.00001
				CHANNELS 3 Zrotation Xrotation Yrotation
				JOINT RightForeFoot
				{
					OFFSET 0.00000 -3.74820 0.00000
					CHANNELS 3 Zrotation Xrotation Yrotation
					JOINT RightToeBase
					{
						OFFSET 0.00000 0.06325 14.43120
						CHANNELS 3 Zrotation Xrotation Yrotation
						End site
						{
							OFFSET 0.00000 0.00000 0.00000
						}
					}
				}
			}
		}
	}
	JOINT LeftUpLeg
	{
		OFFSET 9.98441 0.00000 0.00000
		CHANNELS 3 Zrotation Xrotation Yrotation
		JOINT LeftLeg
		{
			OFFSET 0.00000 -42.11800 0.00000
			CHANNELS 3 Zrotation Xrotation Yrotation
			JOINT LeftFoot
			{
				OFFSET 0.00000 -45.00070 0.00000
				CHANNELS 3 Zrotation Xrotation Yrotation
				JOINT LeftForeFoot
				{
					OFFSET 0.00000 -3.74824 0.00000
					CHANNELS 3 Zrotation Xrotation Yrotation
					JOINT LeftToeBase
					{
						OFFSET 0.00000 0.06325 14.43110
						CHANNELS 3 Zrotation Xrotation Yrotation
						End site
						{
							OFFSET 0.00000 0.00000 0.00000
						}
					}
				}
			}
		}
	}
}
MOTION
Frames: 4
Frame Time: 0.050000
-0.02030906170698988 -0.011214548139561171 -0.013728458844312563 0.030885822227636403 -0.024713040466940745 -0.0448609772049261 2.030741613463509 4.544463086188962 -1.4551818791692794 -0.6102792756486817 3.817572392063246 0.38470923798927875 -0.7392991622220342 -1.3645599518079197 1.3824031499112381 -0.6847745447026138 -0.21968709542667084 -0.28915843423322446 0.012284319995532809 13.930415082903908 -1.2033323700292384 0.1390438407603329 -0.5827699882075396 -4.579533012573377 0.6139073625443529 -16.736238272411804 -0.38718175963359613 -7.404043783998933 2.8174131083183274 -14.840646428635935 74.5541356644068 10.986673069204768 19.602187758137205 6.874661544050912 -3.9282181602054105 86.81950771610103 21.613714647302523 -0.5525394691617058 -4.556880574744712 4.518976664075141 -0.11770886334861298 -1.551741104179125 0.04392230066106694 0.008709264113957423 -56.23899285032016 -0.04698616566803402 -0.04563310615099699 -56.227514704653565 -38.77144245941503 -0.007078343300514125 0.04123713559862311 0.005094037765252451 0.0035000347490516254 -0.03403596158464779 0.013727736468452163 -0.025614955061334297 -0.033470365038703875 -36.68426779586877 0.006615867035394989 0.04116920624582993 0.003542084626547546 -0.028281648049672745 0.03181729414749898 0.03259274281510149 -0.009573711409602127 -0.011734546916273325 -19.72768385818992 -0.0032771708214326374 0.006302896896742331 0.018588968064642938 0.039299597677676594 0.027583670201482054 -0.029314452030267658 0.0015876861259965182 0.03645080539753177 24.03712238401746 -0.011292920805739404 -0.04470831687442258 28.909079714462337 -0.010342657689779561 -0.019720160144679675 28.86294655013866 0.03204474876972364 -0.04077650930436112 7.403922835149499 1.9869905859326986 13.680833753335806 -72.33964046066264 21.563471668644393 -14.981412339893838 -7.449139145439888 1.8334078962998872 -72.096556048109 -20.73028064447868 4.113713197570713 -3.182688298142089 -0.4244723394546698 0.10064314584430928 -8.139721856162994 -0.030929658855343264 -0.008185811431876515 44.587336792406404 -0.008648962256559934 0.011423104390818034 44.564633379956646 12.501067354370543 0.039543784367674265 -0.025381906745911523 -0.028965055825931077 0.012375761789240677 0.006669431957692138 0.032894227895892615 -0.020693509520677732 0.0007518314853957285 11.123295478706915 -0.022455229548157707 -0.04010690004631184 0.009496535891858419 -0.011578800873524768 0.03662352511050041 -0.008704673347569837 -0.020928982384176533 -0.026521555783446994 4.724283363379831 -0.004615042879579929 -0.02953451289518645 0.011214634225280894 -0.01587527404870007 -0.019707190327697854 -0.0021489312033196135 -0.0024080702368761923 0.027876965715551726 -5.6137180706468905 0.004696552349572884 -0.04858085462760789 -6.689477074911351 0.011412817195817972 0.04827671608355593 -6.684249097775655 -0.02401077071956019 -0.012713513440696114 0.04271107373222399 0.033373847906977575 -0.040627524317006655 8.048252419724236 3.477984913115907 -19.268027847432357 0.005235710029810054 10.37902616336936 0.015814722015745113 -5.609646111311419 -15.616605990248228 3.151434326549333 0.00858144793315059 -0.02034898926313081 0.04925546065067418 0.0194798991961307 4.68472699099916 -0.024359236839600222 12.45105134498551 -8.223124695824588 6.837546916658965 0.03914922449152574 46.37186755710014 -0.03220522551732547 -4.289245103018535 -14.748472423818951 -3.860372361774574 -0.034586249951720306 0.005210000097579449 0.030762815517816094 -0.015649607993696434 -10.728087964815327 0.03494957018385386 
0.028120667852653686 -0.010490440336814512 0.007487813952402205 -0.040886403092583144 -0.02823440691023614 0.048871032494673144 2.079935815607993 4.616433768111375 -1.4299095894818215 -0.6131671717174444 3.8619937500284136 0.36083449238711823 -0.6822669974616068 -1.2927930962264116 1.46206031850806 -0.6202957462615428 -0.20640249377441033 -0.33244869105950037 0.06771521997721185 13.81746970649086 -1.3484900090351204 0.05850533143583236 -0.5265538951065863 -4.972776854011135 0.7265226535000399 -16.6030443534111 -0.40631242753388674 -6.957654328576239 2.694089950989087 -14.958756956613724 73.83159074569656 12.2037047195329 18.10312021056243 5.920114106249609 -3.9288453709764424 87.51875496909803 21.73857007333259 -0.609093355916048 -4.770643769995005 4.537886093627829 -0.12204780294765685 -1.6041326148882602 0.04340489026282067 0.04322398175897263 -56.250364967666286 -0.02434884490312542 0.007750435076511679 -56.18768570580681 -38.75838917705073 0.024733710230474788 0.030558028719780896 -0.04512388028562149 0.01945799514625247 -0.005258785603786973 0.016505492758662917 -0.013686190210829934 0.00316177022957038 -36.72515467933138 0.009359445257757872 -0.012808572839178045 -0.018365116301278243 0.037117000862837826 -0.040870060052611526 -0.017626065854100873 -0.0164053055280688 0.016059234051248036 -19.758419692743715 0.00024460498316478417 -0.020927269650813717 -0.022845460868414547 0.025126950343415038 -0.018602914008398985 0.010880406888475407 0.03752607396244925 -0.01143287772569379 24.04847117684576 -0.02053884678887865 0.02066927664806509 28.872654724504198 0.016316712178884515 -0.015991540754593157 28.834726290681896 0.012237487373860175 0.038137506102367144 6.952544423221059 1.8791626877121794 13.762842532411883 -72.08128116975334 22.11127862263979 -13.77936088700772 -6.807761260282479 2.5060472729155983 -71.31037506388621 -20.796801675489068 4.313635667964252 -3.2700093691831533 -0.5179911143046763 0.04572381340359924 -8.084915225175317 0.041777999846943976 0.03933412737212806 44.61523083783809 0.048292345957049586 -0.02551809240837207 44.57692731366784 12.477436646835132 -0.030955592264628882 0.008204167678017968 0.00587335491328443 0.045878837829999214 0.021565351195709237 -0.003011223078543985 -0.01992804169946055 0.009835202466359737 11.114036480984312 0.002561130124158181 0.04405622645071499 -0.02861416165227464 0.048939913266583215 0.03770780189950586 0.021064516416157253 0.026971248309410983 0.024174470926109495 4.809686174802569 -0.043620519117795124 0.004349884488961859 -0.021000684392980983 0.04790241735566746 -0.02440100895393669 0.02303128962845217 0.022837784158765598 0.0008391242624209289 -5.607395479541404 -0.011705671516981006 -0.0367505406008852 -6.734753004272827 0.03465259507140433 -0.0004527724737718091 -6.743440491245122 -0.0010706541096617349 0.045667450329480164 0.005028290694349479 -0.02021719146723901 0.013147689956653425 8.011154044433342 3.531355092441103 -19.221470869932627 0.003928277769673173 10.362220542473427 0.020735523528817298 -5.615659942423367 -15.681344660576316 3.200207851810016 0.0344828345777449 -0.034206628814898 -0.007657387182623155 -0.0033710378951226265 4.690821177915558 0.03641167648205967 12.426432974681322 -8.207346212421259 6.904941924637862 -0.013543771099531159 46.36847535742682 -0.005877702310894757 -4.276044605842457 -14.729905087109849 -3.7860549192245503 0.0419298356346645 -0.024698732994313882 -0.018227485111227307 0.03612819910886414 -10.703852236702177 -0.007260254213858269 
-0.02294824906166161 -0.0005629601317315409 0.019023568656267573 -0.014097354254207165 0.045588949688007314 0.028495450140321166 2.174343588524637 4.630113289213397 -1.510956384359443 -0.6715674194897132 3.8130117987613525 0.39748110471800624 -0.7319403475603643 -1.1926512885891012 1.4277037126975247 -0.5088903058473156 -0.14759362403944717 -0.29261969745256056 0.1316350274903482 13.635892469735028 -1.4974374061474633 0.12924629862733927 -0.4362666036006464 -5.362407209863107 0.7103538662250917 -16.391881870119086 -0.41012703711713094 -6.599215556063917 2.6127837469030695 -15.105349912468965 73.34858345016256 13.355634523005504 16.00244904756684 5.040366015389272 -3.1205213930200024 85.99578827835607 22.283928315433286 -0.580541664927705 -4.85485585109979 4.524123848887818 -0.1220595124522933 -1.5691332267084455 0.022048421740471752 0.002720768766553038 -56.2623369835444 0.01112725836742127 0.025069488711110782 -56.18760339072658 -38.7706543346755 -0.022030563364984185 -0.04705731078016543 0.03749243556971323 -0.03420888589901825 0.0089539480217097 -0.04601067947911517 -0.0158246685858628 -0.04574737459134395 -36.72090127894232 0.04839919009419314 0.032628371211334495 0.008756615045821895 -0.017933326045956464 0.02542422754054318 -0.04224224531654988 -0.018948928492987648 -0.0016257046419884476 -19.761658301541267 0.03264273480389079 0.018880745080411016 0.0006526012931516645 -0.017086657743705738 0.01775211975462236 -0.0388891149709335 -0.03154324923431986 0.03954277123802948 24.040475709306058 -0.01988490690864048 0.006090062317617321 28.901346022709784 0.0016780131155101825 0.028930245721555257 28.878874321975186 0.03464734513909993 -0.018944295313973642 6.507120673900692 1.818342929229324 13.762976175461196 -71.79240620821001 22.43694520912022 -12.654539913267818 -5.476677143386282 3.264823132917302 -69.31382249194884 -20.98123521669826 4.7361032669748075 -3.3391430429778173 -0.4939714830389361 0.07134888133595582 -8.105350194957008 -0.04845253213875257 0.0024407500018322806 44.5573553621186 -0.043166472527742326 0.02246796898297176 44.5899818677489 12.465193904191965 -0.03410829042310482 -0.012612816601779351 0.009416738483541172 0.028442100265141896 0.011761832496532445 -0.0075280225070810105 0.03477572070209092 0.042881105135123804 11.091307130380516 0.04417830549203147 0.023681302993939942 -0.04321916246050557 0.016638011153465478 -0.039486333254452846 -0.0038044656189115235 0.02009568407039129 -0.02260850720483111 4.815671030220517 0.030454363664255808 0.035921432917448905 -0.031177585675954793 -0.027476652256656815 -0.005094942878329989 -0.009213460983207213 0.034446894663693405 0.017680113519671855 -5.572402880364555 -0.017973226078566606 -0.03012186449237559 -6.721186037348213 -0.004666508806968088 0.036856899169353925 -6.724800538149614 -0.02621890099433589 0.00011552405851852106 0.019578087187806244 -0.011499312803780536 -0.04566557537551297 8.022540436591767 3.520543028577789 -19.219189527116356 -0.03139961127412485 10.386254012505198 0.0017195172613015224 -5.580090852531395 -15.65355712046551 3.151302349602712 -0.03113295063873123 0.019288297623630955 0.040294499641831925 -0.020205665787504358 4.7081807108354194 0.02597103540453305 12.475468910373136 -8.20966321843566 6.898543174655035 0.04708145571891233 46.36478501882401 0.03746180910740899 -4.33907078881054 -14.73471878282995 -3.8653994146328374 0.015882893971923634 0.02062227691065239 -0.030485628345424183 0.0046347535887047335 -10.7262349173108 0.04700676886973318 
0.006938802963925711 -0.014617176633353005 -0.020177969336947064 -0.019144142491054075 0.0376857161589776 0.02585635552341395 2.127853444266789 4.658490833228219 -1.4624953071431663 -0.6653850097477751 3.786414948480035 0.38920440118133304 -0.7376352342829321 -1.1627712000007788 1.2601749890834943 -0.44123925934414815 -0.14908468479367334 -0.3018501138606351 0.10627560600864122 13.523461483543137 -1.614650476652792 0.15121282263638264 -0.32615326699789415 -5.520387035458944 0.7974042477772221 -16.129862143037506 -0.410358653435212 -6.162561108346823 2.4528998887706503 -15.148878992566896 72.82660080198505 14.513885575793834 13.25848615495506 4.114240846568101 -1.5465176441771118 82.93290702115542 23.490121107861395 -0.5098143550946784 -5.024851800897054 4.520211529503493 -0.07726281243468133 -1.612124786515408 -0.0073900728352485935 -0.021026281874427247 -56.2288463106239 0.0018478328425587034 -0.04293454015092456 -56.21308632919827 -38.81849951295457 -0.03028291742641828 0.020274746654613873 0.03460123324871618 -0.014457223662601802 0.010336642964805874 -0.02106571019172814 0.0030939339476639053 0.0003453464610646511 -36.7089726698899 0.019904061992115335 -0.03780861026628852 0.0012841039254556355 0.024166751587515262 -0.01674089564903137 -0.008514823538914536 0.01968952911902235 -0.004597216362193985 -19.734972374984256 0.04732910851147029 0.03653782636382614 -0.003123800731476149 -0.011026828324607257 0.034118058706083684 0.0199695978177672 -0.0261198652448409 -0.007506112668916049 24.047740773440058 0.01917697054587344 -0.027668573173612813 28.902835641566853 -0.009189224122773983 0.027150346781630145 28.861214941486264 0.011717593179323115 0.0016229998382030143 6.118947951872911 1.7422974069182915 13.83703017096241 -71.50421460015994 22.643159335651116 -11.677349215106787 -4.135622815637814 3.743863803475255 -67.57050412729588 -21.291551073736652 5.257918468363535 -3.517231293174507 -0.4361860176263206 0.04045489038282528 -8.141719402297017 0.031172452880069403 0.003651739085610654 44.58125426821024 -0.012719586364267616 0.04782725747350488 44.564386577323766 12.426494371261748 -0.013802925605013307 0.018394947776557907 0.030351174688906763 0.010163666400011926 0.014314410271214323 0.030670599027118616 -0.02618256672787478 -0.04010783354169729 11.08929852946381 -0.022994282454681044 -0.01647021136814468 -0.010151113169652835 -0.01747460638615169 -0.007183591497627501 -0.01723629180455847 -0.02239644001324745 0.02942739663861062 4.72660124790073 -0.02339002175057861 0.009081812684326503 -0.01023364407360856 0.023549130710118753 -0.03158271196175264 -0.013041817681197866 0.019241269181445732 -0.042397005882284275 -5.571104319044209 0.008359680445566729 0.02776706310568859 -6.759079049287991 0.03427171431053804 0.028293115498725055 -6.72549978533005 -0.009773814162842632 0.04779923868489004 0.030054300837291312 0.009371519825586908 -0.02777605796136579 8.035934628024249 3.5228408858658176 -19.21612181943369 0.0387040441359598 10.37826192370393 0.028620885738424792 -5.589558587145043 -15.667650551722044 3.1584641560872964 -0.00437396905677212 -0.0013414918130345334 0.006888987590351426 0.0378099119692807 4.671501663471718 0.04695872675110169 12.4679416709323 -8.204268669199479 6.88790948083542 0.017272638969856553 46.4204381853924 -0.015331552563889114 -4.317791754263987 -14.720144893797224 -3.87725163694752 0.030659975096962735 0.022194623351305908 -0.015747940741883678 -0.010693340868880652 -10.744582215814669 0.024354579420517775 
